mtllib terrain.mtl

v -1.5 0.300000 1.5
v -0.789062 0.300000 1.5
v -1.5 0.300000 0.784709
vt 36.2205 0
vt 36.2205 27.9897
vt 8.05943 -3.41061e-13
vn 0 1 0
vn 0 1 0
vn 0 1 0
usemtl Leafs
f 1/1/1 2/2/2 3/3/3

v -1.5 0.300000 1.5
v -0.72 0.000000 1.5
v -0.789062 0.300000 1.5
v -1.5 0.000000 1.5
v -1.5 0.300000 1.5
v -1.5 0.000000 0.72
v -1.5 0.000000 1.5
v -1.5 0.300000 0.58
v -1.5 0.300000 0.784709
v -1.5 0.300000 0.784709
v -0.58 0.300000 1.5
v -1.5 0.300000 0.58
v -0.789062 0.300000 1.5
v -0.58 0.300000 1.5
v -0.72 0.000000 1.5
v -1.5 0.300000 0.58
v -0.58 0.300000 1.5
v -1.5 0.000000 0.72
v -1.5 0.000000 1.5
v -1.5 0.000000 0.72
v -0.72 0.000000 1.5
vt -2.11657e-12 11.4173
vt 30.7087 -5.25969e-12
vt 27.9897 11.4173
vt -2.11657e-12 -5.25969e-12
vt 36.2205 11.4173
vt 5.51181 1.08995e-23
vt 36.2205 7.16255e-23
vt -4.95413e-23 11.4173
vt 8.05943 11.4173
vt 8.05943 -3.41061e-13
vt 36.2205 36.2205
vt 0 5.5536e-11
vt 36.2205 27.9897
vt 36.2205 11.4173
vt -47.326 -1.2591
vt -3.92701e-11 10.8051
vt -51.2235 10.8051
vt -3.89744 -1.2591
vt -36.2205 0
vt -5.51181 0
vt -36.2205 30.7087
vn 1.19249e-08 1.45213e-13 1
vn 1.19249e-08 1.45213e-13 1
vn 1.19249e-08 1.45213e-13 1
vn 1.19249e-08 1.45213e-13 1
vn -1 2.21677e-12 1.1924e-08
vn -1 2.21677e-12 1.1924e-08
vn -1 2.21677e-12 1.1924e-08
vn -1 2.21677e-12 1.1924e-08
vn -1 2.21677e-12 1.1924e-08
vn 0 1 0
vn 0 1 0
vn 0 1 0
vn 0 1 0
vn 1.19249e-08 1.45213e-13 1
vn 0.669191 -0.323058 -0.669191
vn 0.669191 -0.323058 -0.669191
vn 0.669191 -0.323058 -0.669191
vn 0.669191 -0.323058 -0.669191
vn 0 -1 0
vn 0 -1 0
vn 0 -1 0
usemtl Stone
f 4/4/4 5/5/5 6/6/6
f 5/5/5 4/4/4 7/7/7
f 8/8/8 9/9/9 10/10/10
f 9/9/9 8/8/8 11/11/11
f 11/11/11 8/8/8 12/12/12
f 13/13/13 14/14/14 15/15/15
f 14/14/14 13/13/13 16/16/16
f 6/6/6 5/5/5 17/17/17
f 18/18/18 19/19/19 20/20/20
f 19/19/19 18/18/18 21/21/21
f 22/22/22 23/23/23 24/24/24

