mtllib terrain.mtl

v 1.5 0.300000 0.58
v 1.5 0.000000 1.5
v 1.5 0.000000 0.72
v 1.5 0.300000 1.5
v 1.5 0.300000 0.784709
v 1.5 0.300000 0.784709
v 1.5 0.300000 0.58
v 0.88719 0.300000 0.726171
v 1.5 0.000000 0.72
v 0.88719 0.300000 0.726171
v 1.5 0.300000 0.58
v 0.88719 0.000000 0.866171
v 1.5 0.000000 1.5
v 0.88719 0.000000 0.866171
v 1.5 0.000000 0.72
v -0.22508 0.000000 1.08266
v -1.5 0.000000 1.5
v -1.12814 -0.000000 0.83895
v -1.5 0.000000 0.72
v -1.5 0.300000 1.5
v -1.5 0.000000 0.72
v -1.5 0.000000 1.5
v -1.5 0.300000 0.58
v -1.5 0.300000 0.789062
v 0.87978 0.300000 0.932647
v 0.44634 0.300000 0.795771
v 0.42432 0.300000 0.58
v -0.22508 0.300000 0.942659
v 0.42432 0.300000 0.58
v -0.22508 0.000000 1.08266
v -0.22508 0.300000 0.942659
v 0.42432 0.000000 0.72
v 0.88719 0.300000 0.726171
v 0.42432 0.000000 0.72
v 0.42432 0.300000 0.58
v 0.88719 0.000000 0.866171
v 0.42432 0.000000 0.72
v -0.798969 0.000000 0.72
v -0.22508 0.300000 0.942659
v -0.22508 0.000000 1.08266
v -0.798969 0.300000 0.58
v -1.12814 -0.000000 0.83895
v -0.798969 0.300000 0.58
v -0.798969 0.000000 0.72
v -1.12814 0.300000 0.69895
v -1.5 0.000000 0.72
v -1.12814 0.300000 0.69895
v -1.12814 -0.000000 0.83895
v -1.5 0.300000 0.58
v -1.5 0.300000 0.789062
v -1.12814 0.300000 0.69895
v -1.5 0.300000 0.58
v -0.822954 0.300000 0.800393
v -0.798969 0.300000 0.58
v -0.23137 0.300000 1.17424
v -1.12423 0.300000 0.909263
v -0.798969 0.000000 0.72
v -1.5 0.300000 1.5
v 1.5 0.000000 1.5
v 1.5 0.300000 1.5
v -1.5 0.000000 1.5
vt 16.5354 11.4173
vt -19.685 -1.78658e-13
vt 11.0236 -1.78658e-13
vt -19.685 11.4173
vt 8.47601 11.4173
vt -8.47601 118.11
vt -16.5354 118.11
vt -10.7807 93.9839
vt -117.445 -7.09021
vt -93.9206 5.52327
vt -118.724 5.52327
vt -92.6417 -7.09021
vt -19.685 118.11
vt 5.26887 93.9839
vt 11.0236 118.11
vt -3.25429 50.1936
vt -19.685 8.24862e-34
vt 6.34055 14.6403
vt 11.0236 -4.61922e-34
vt 19.685 11.4173
vt -11.0236 -8.72462e-30
vt 19.685 1.55797e-29
vt -16.5354 11.4173
vt -8.30463 11.4173
vt -2.65169 93.6923
vt -8.04053 76.6275
vt -16.5354 75.7604
vt -2.25752 50.1936
vt -74.2072 1.78117
vt -42.2364 -10.6089
vt -44.9238 1.78117
vt -71.5198 -10.6089
vt -86.3751 26.5048
vt -68.9243 13.9357
vt -67.2646 26.5048
vt -88.0349 13.9357
vt 11.0236 75.7604
vt -17.4425 9.09208
vt -41.2254 21.4236
vt -44.1698 9.09208
vt -14.4981 21.4236
vt -15.9238 0.408251
vt -31.5765 12.9472
vt -29.7033 0.408251
vt -17.797 12.9472
vt 3.35854 4.3863
vt -10.3333 16.9527
vt -12.0125 4.3863
vt 5.03782 16.9527
vt -8.30463 -1.13687e-13
vt -11.8524 14.6403
vt -16.5354 -1.13687e-13
vt -7.85853 26.6553
vt -16.5354 27.5996
vt 6.85978 49.9462
vt -3.57232 14.7942
vt 11.0236 27.5996
vt -2.13163e-15 11.4173
vt 118.11 -2.50305e-15
vt 118.11 11.4173
vt -2.13163e-15 -2.50305e-15
vn 1 1.51264e-15 -1.19249e-08
vn 1 1.51264e-15 -1.19249e-08
vn 1 1.51264e-15 -1.19249e-08
vn 1 1.51264e-15 -1.19249e-08
vn 1 1.51264e-15 -1.19249e-08
vn 0 1 0
vn 0 1 0
vn 0 1 0
vn -0.210014 -0.425053 -0.880468
vn -0.210014 -0.425053 -0.880468
vn -0.210014 -0.425053 -0.880468
vn -0.210014 -0.425053 -0.880468
vn 4.23189e-17 -1 -9.90171e-19
vn 4.23189e-17 -1 -9.90171e-19
vn 4.23189e-17 -1 -9.90171e-19
vn 4.23189e-17 -1 -9.90171e-19
vn 4.23189e-17 -1 -9.90171e-19
vn 4.23189e-17 -1 -9.90171e-19
vn 4.23189e-17 -1 -9.90171e-19
vn -1 -1.51264e-15 1.19249e-08
vn -1 -1.51264e-15 1.19249e-08
vn -1 -1.51264e-15 1.19249e-08
vn -1 -1.51264e-15 1.19249e-08
vn -1 -1.51264e-15 1.19249e-08
vn 0 1 0
vn 0 1 0
vn 0 1 0
vn 0 1 0
vn -0.449298 -0.388397 -0.804537
vn -0.449298 -0.388397 -0.804537
vn -0.449298 -0.388397 -0.804537
vn -0.449298 -0.388397 -0.804537
vn 0.273537 -0.418168 -0.866206
vn 0.273537 -0.418168 -0.866206
vn 0.273537 -0.418168 -0.866206
vn 0.273537 -0.418168 -0.866206
vn 4.23189e-17 -1 -9.90171e-19
vn 0.494606 -0.377848 -0.782685
vn 0.494606 -0.377848 -0.782685
vn 0.494606 -0.377848 -0.782685
vn 0.494606 -0.377848 -0.782685
vn -0.309456 -0.413409 -0.856347
vn -0.309456 -0.413409 -0.856347
vn -0.309456 -0.413409 -0.856347
vn -0.309456 -0.413409 -0.856347
vn 0.276808 -0.417761 -0.865363
vn 0.276808 -0.417761 -0.865363
vn 0.276808 -0.417761 -0.865363
vn 0.276808 -0.417761 -0.865363
vn 0 1 0
vn 0 1 0
vn 0 1 0
vn 0 1 0
vn 0 1 0
vn 0 1 0
vn 0 1 0
vn 4.23189e-17 -1 -9.90171e-19
vn 1.19249e-08 1.27155e-16 1
vn 1.19249e-08 1.27155e-16 1
vn 1.19249e-08 1.27155e-16 1
vn 1.19249e-08 1.27155e-16 1
usemtl Stone
f 1/1/1 2/2/2 3/3/3
f 2/2/2 1/1/1 4/4/4
f 4/4/4 1/1/1 5/5/5
f 6/6/6 7/7/7 8/8/8
f 9/9/9 10/10/10 11/11/11
f 10/10/10 9/9/9 12/12/12
f 13/13/13 14/14/14 15/15/15
f 14/14/14 13/13/13 16/16/16
f 17/17/17 16/16/16 13/13/13
f 17/17/17 18/18/18 16/16/16
f 18/18/18 17/17/17 19/19/19
f 20/20/20 21/21/21 22/22/22
f 21/21/21 20/20/20 23/23/23
f 23/23/23 20/20/20 24/24/24
f 25/25/25 6/6/6 26/26/26
f 8/8/8 26/26/26 6/6/6
f 27/27/27 26/26/26 8/8/8
f 26/26/26 27/27/27 28/28/28
f 29/29/29 30/30/30 31/31/31
f 30/30/30 29/29/29 32/32/32
f 33/33/33 34/34/34 35/35/35
f 34/34/34 33/33/33 36/36/36
f 16/16/16 37/37/37 14/14/14
f 38/38/38 39/39/39 40/40/40
f 39/39/39 38/38/38 41/41/41
f 42/42/42 43/43/43 44/44/44
f 43/43/43 42/42/42 45/45/45
f 46/46/46 47/47/47 48/48/48
f 47/47/47 46/46/46 49/49/49
f 50/50/50 51/51/51 52/52/52
f 53/53/53 51/51/51 50/50/50
f 28/28/28 51/51/51 53/53/53
f 51/51/51 28/28/28 54/54/54
f 28/28/28 53/53/53 55/55/55
f 56/56/56 53/53/53 50/50/50
f 26/26/26 28/28/28 55/55/55
f 16/16/16 18/18/18 57/57/57
f 58/58/58 59/59/59 60/60/60
f 59/59/59 58/58/58 61/61/61

v -1.5 0.300000 1.5
v -1.12423 0.300000 0.909263
v -1.5 0.300000 0.789062
v -0.23137 0.300000 1.17424
v 1.5 0.300000 1.5
v 0.87978 0.300000 0.932647
v 1.5 0.300000 0.784709
v -0.822954 0.300000 0.800393
v 0.44634 0.300000 0.795771
vt 19.685 0
vt -3.57232 14.7942
vt -8.30463 -1.13687e-13
vt 6.85978 49.9462
vt 19.685 118.11
vt -2.65169 93.6923
vt -8.47601 118.11
vt -7.85853 26.6553
vt -8.04053 76.6275
vn 0 1 0
vn 0 1 0
vn 0 1 0
vn 0 1 0
vn 0 1 0
vn 0 1 0
vn 0 1 0
vn 0 1 0
vn 0 1 0
usemtl Leafs
f 62/62/62 63/63/63 64/64/64
f 63/63/63 62/62/62 65/65/65
f 66/66/66 65/65/65 62/62/62
f 66/66/66 67/67/67 65/65/65
f 67/67/67 66/66/66 68/68/68
f 65/65/65 69/69/69 63/63/63
f 65/65/65 67/67/67 70/70/70

