mtllib terrain.mtl

v 1.5 0.3 1.5
v -1.5 0 1.5
v 1.5 0 1.5
v -1.5 0.3 1.5
v 1.5 0 -1.5
v -1.5 0.3 -1.5
v 1.5 0.3 -1.5
v -1.5 0 -1.5
v 1.5 0 -1.5
v -1.5 0 1.5
v -1.5 0 -1.5
v 1.5 0 1.5
v 1.5 0 -1.5
v 1.5 0.3 1.5
v 1.5 0 1.5
v 1.5 0.3 -1.5
v -1.5 0 1.5
v -1.5 0.3 -1.5
v -1.5 0 -1.5
v -1.5 0.3 1.5
vt 118.11 11.811
vt 0 0
vt 118.11 0
vt 0 11.811
vt -118.11 0
vt 0 11.811
vt -118.11 11.811
vt 0 0
vt -118.11 118.11
vt 0 0
vt 0 118.11
vt -118.11 0
vt 118.11 0
vt 0 11.811
vt 0 0
vt 118.11 11.811
vt 0 0
vt -118.11 11.811
vt -118.11 0
vt 0 11.811
vn 0 0 1
vn 0 0 1
vn 0 0 1
vn 0 0 1
vn 0 0 -1
vn 0 0 -1
vn 0 0 -1
vn 0 0 -1
vn 0 -1 0
vn 0 -1 0
vn 0 -1 0
vn 0 -1 0
vn 1 0 0
vn 1 0 0
vn 1 0 0
vn 1 0 0
vn -1 0 0
vn -1 0 0
vn -1 0 0
vn -1 0 0
usemtl Stone
f 1/1/1 2/2/2 3/3/3
f 2/2/2 1/1/1 4/4/4
f 5/5/5 6/6/6 7/7/7
f 6/6/6 5/5/5 8/8/8
f 9/9/9 10/10/10 11/11/11
f 10/10/10 9/9/9 12/12/12
f 13/13/13 14/14/14 15/15/15
f 14/14/14 13/13/13 16/16/16
f 17/17/17 18/18/18 19/19/19
f 18/18/18 17/17/17 20/20/20

v 1.5 0.3 1.5
v 0 0.14 0
v -1.5 0.3 1.5
v 1.5 0.3 -1.5
v 0 0.14 0
v 1.5 0.3 1.5
v 1.5 0.3 -1.5
v -1.5 0.3 -1.5
v 0 0.14 0
v 0 0.14 0
v -1.5 0.3 -1.5
v -1.5 0.3 1.5
vt -118.11 1.25274
vt -59.0551 -58.1374
vt 6.16298e-33 1.25274
vt -118.11 118.697
vt -59.0551 59.3066
vt 0 118.697
vt 118.11 118.697
vt 9.92628e-16 118.697
vt 59.0551 59.3066
vt 59.0551 -58.1374
vt 118.11 1.25274
vt 0 1.25274
vn -2.56614e-18 0.994359 -0.106065
vn -2.56614e-18 0.994359 -0.106065
vn -2.56614e-18 0.994359 -0.106065
vn -0.106065 0.994359 0
vn -0.106065 0.994359 0
vn -0.106065 0.994359 0
vn 8.91397e-19 0.994359 0.106065
vn 8.91397e-19 0.994359 0.106065
vn 8.91397e-19 0.994359 0.106065
vn 0.106065 0.994359 0
vn 0.106065 0.994359 0
vn 0.106065 0.994359 0
usemtl Leafs
f 21/21/21 22/22/22 23/23/23
f 24/24/24 25/25/25 26/26/26
f 27/27/27 28/28/28 29/29/29
f 30/30/30 31/31/31 32/32/32

