mtllib terrain.mtl

v 1.5 0 1.5
v 0.7413 0.15 1.5
v -1.5 0 1.5
v 1.5 0.3 1.5
v 1.5 0 -1.5
v 1.5 0.3 1.5
v 1.5 0 1.5
v 1.5 0.3 -1.5
v 1.5 0 -1.5
v 0.7413 0.15 -1.5
v 1.5 0.3 -1.5
v -0.741302 0.15 -1.5
v -1.5 0 -1.5
v -1.5 0.3 -1.5
v -1.5 0 1.5
v -1.5 0.3 -1.5
v -1.5 0 -1.5
v -1.5 0.3 1.5
v -0.741302 0.15 1.5
v -1.5 0.3 1.5
v -0.741302 0.15 -1.5
v -0.595131 0.3 -0.88719
v -0.595131 0.15 -0.88719
v -0.741302 0.3 -1.5
v -0.741302 0.3 -1.5
v -0.741302 0.3 1.5
v -0.622352 0.15 1.12814
v -0.741302 0.3 1.5
v -0.741302 0.15 1.5
v -0.622352 0.3 1.12814
v -0.741302 0.15 0.798969
v -0.622352 0.3 1.12814
v -0.622352 0.15 1.12814
v -0.741302 0.3 0.798969
v -0.37864 0.15 0.22508
v -0.741302 0.3 0.798969
v -0.741302 0.15 0.798969
v -0.37864 0.3 0.22508
v -0.741302 0.15 -0.42432
v -0.37864 0.3 0.22508
v -0.37864 0.15 0.22508
v -0.741302 0.3 -0.42432
v -0.595131 0.15 -0.88719
v -0.741302 0.3 -0.42432
v -0.741302 0.15 -0.42432
v -0.595131 0.3 -0.88719
v 0.86025 0.15 1.12814
v 0.7413 0.3 0.798969
v 0.7413 0.15 0.798969
v 0.86025 0.3 1.12814
v 0.7413 0.15 1.5
v 0.86025 0.3 1.12814
v 0.86025 0.15 1.12814
v 0.7413 0.3 1.5
v 0.7413 0.3 1.5
v 0.7413 0.3 -1.5
v 0.88747 0.15 -0.88719
v 0.7413 0.3 -1.5
v 0.7413 0.15 -1.5
v 0.88747 0.3 -0.88719
v 0.7413 0.15 -0.42432
v 0.88747 0.3 -0.88719
v 0.88747 0.15 -0.88719
v 0.7413 0.3 -0.42432
v 1.10396 0.15 0.22508
v 0.7413 0.3 -0.42432
v 0.7413 0.15 -0.42432
v 1.10396 0.3 0.22508
v 0.7413 0.15 0.798969
v 1.10396 0.3 0.22508
v 1.10396 0.15 0.22508
v 0.7413 0.3 0.798969
v 1.5 0 -1.5
v -1.5 0 1.5
v -1.5 0 -1.5
v 1.5 0 1.5
vt 118.11 0
vt 88.2402 5.90551
vt 0 0
vt 118.11 11.811
vt 118.11 0
vt 0 11.811
vt 0 0
vt 118.11 11.811
vt -118.11 -4.9809e-11
vt -88.2402 5.90551
vt -118.11 11.811
vt -29.87 5.90551
vt -4.38737e-12 -4.9809e-11
vt -4.38737e-12 11.811
vt 0 0
vt -118.11 11.811
vt -118.11 0
vt 0 11.811
vt 29.87 5.90551
vt 0 11.811
vt 107.957 5.90551
vt 83.1537 11.811
vt 83.1537 5.90551
vt 107.957 11.811
vt -29.87 11.811
vt 29.87 11.811
vt 24.4715 5.90551
vt 9.10043 11.811
vt 9.10043 5.90551
vt 24.4715 11.811
vt 15.8053 5.90551
vt 2.02576 11.811
vt 2.02576 5.90551
vt 15.8053 11.811
vt 66.0155 5.90551
vt 39.2882 11.811
vt 39.2882 5.90551
vt 66.0155 11.811
vt 51.5811 5.90551
vt 22.2976 11.811
vt 22.2976 5.90551
vt 51.5811 11.811
vt 100.349 5.90551
vt 81.2386 11.811
vt 81.2386 5.90551
vt 100.349 11.811
vt 17.8118 5.90551
vt 4.03226 11.811
vt 4.03226 5.90551
vt 17.8118 11.811
vt -26.884 5.90551
vt -42.255 11.811
vt -42.255 5.90551
vt -26.884 11.811
vt 88.2402 11.811
vt -88.2402 11.811
vt -69.6108 5.90551
vt -94.414 11.811
vt -94.414 5.90551
vt -69.6108 11.811
vt -98.8157 5.90551
vt -117.926 11.811
vt -117.926 5.90551
vt -98.8157 11.811
vt 6.16233 5.90551
vt -23.1211 11.811
vt -23.1211 5.90551
vt 6.16233 11.811
vt -70.4701 5.90551
vt -97.1973 11.811
vt -97.1973 5.90551
vt -70.4701 11.811
vt -118.11 118.11
vt 0 0
vt 0 118.11
vt -118.11 0
vn 0 0 1
vn 0 0 1
vn 0 0 1
vn 0 0 1
vn 1 0 0
vn 1 0 0
vn 1 0 0
vn 1 0 0
vn -3.71464e-14 4.21717e-13 -1
vn -3.71464e-14 4.21717e-13 -1
vn -3.71464e-14 4.21717e-13 -1
vn -3.71464e-14 4.21717e-13 -1
vn -3.71464e-14 4.21717e-13 -1
vn -3.71464e-14 4.21717e-13 -1
vn -1 0 0
vn -1 0 0
vn -1 0 0
vn -1 0 0
vn 0 0 1
vn 0 0 1
vn 0.972712 0 -0.232017
vn 0.972712 0 -0.232017
vn 0.972712 0 -0.232017
vn 0.972712 0 -0.232017
vn -3.71464e-14 4.21717e-13 -1
vn 0 0 1
vn 0.952459 0 0.304668
vn 0.952459 0 0.304668
vn 0.952459 0 0.304668
vn 0.952459 0 0.304668
vn 0.940477 0 -0.339857
vn 0.940477 0 -0.339857
vn 0.940477 0 -0.339857
vn 0.940477 0 -0.339857
vn 0.845353 0 0.534208
vn 0.845353 0 0.534208
vn 0.845353 0 0.534208
vn 0.845353 0 0.534208
vn 0.87308 0 -0.487576
vn 0.87308 0 -0.487576
vn 0.87308 0 -0.487576
vn 0.87308 0 -0.487576
vn 0.953583 0 0.30113
vn 0.953583 0 0.30113
vn 0.953583 0 0.30113
vn 0.953583 0 0.30113
vn -0.940477 0 0.339857
vn -0.940477 0 0.339857
vn -0.940477 0 0.339857
vn -0.940477 0 0.339857
vn -0.952459 0 -0.304668
vn -0.952459 0 -0.304668
vn -0.952459 0 -0.304668
vn -0.952459 0 -0.304668
vn 0 0 1
vn -3.71464e-14 4.21717e-13 -1
vn -0.972712 0 0.232017
vn -0.972712 0 0.232017
vn -0.972712 0 0.232017
vn -0.972712 0 0.232017
vn -0.953583 0 -0.30113
vn -0.953583 0 -0.30113
vn -0.953583 0 -0.30113
vn -0.953583 0 -0.30113
vn -0.87308 0 0.487576
vn -0.87308 0 0.487576
vn -0.87308 0 0.487576
vn -0.87308 0 0.487576
vn -0.845353 0 -0.534208
vn -0.845353 0 -0.534208
vn -0.845353 0 -0.534208
vn -0.845353 0 -0.534208
vn 0 -1 0
vn 0 -1 0
vn 0 -1 0
vn 0 -1 0
usemtl Stone
f 1/1/1 2/2/2 3/3/3
f 2/2/2 1/1/1 4/4/4
f 5/5/5 6/6/6 7/7/7
f 6/6/6 5/5/5 8/8/8
f 9/9/9 10/10/10 11/11/11
f 10/10/10 9/9/9 12/12/12
f 13/13/13 12/12/12 9/9/9
f 12/12/12 13/13/13 14/14/14
f 15/15/15 16/16/16 17/17/17
f 16/16/16 15/15/15 18/18/18
f 3/3/3 19/19/19 20/20/20
f 19/19/19 3/3/3 2/2/2
f 21/21/21 22/22/22 23/23/23
f 22/22/22 21/21/21 24/24/24
f 12/12/12 14/14/14 25/25/25
f 20/20/20 19/19/19 26/26/26
f 27/27/27 28/28/28 29/29/29
f 28/28/28 27/27/27 30/30/30
f 31/31/31 32/32/32 33/33/33
f 32/32/32 31/31/31 34/34/34
f 35/35/35 36/36/36 37/37/37
f 36/36/36 35/35/35 38/38/38
f 39/39/39 40/40/40 41/41/41
f 40/40/40 39/39/39 42/42/42
f 43/43/43 44/44/44 45/45/45
f 44/44/44 43/43/43 46/46/46
f 47/47/47 48/48/48 49/49/49
f 48/48/48 47/47/47 50/50/50
f 51/51/51 52/52/52 53/53/53
f 52/52/52 51/51/51 54/54/54
f 2/2/2 4/4/4 55/55/55
f 11/11/11 10/10/10 56/56/56
f 57/57/57 58/58/58 59/59/59
f 58/58/58 57/57/57 60/60/60
f 61/61/61 62/62/62 63/63/63
f 62/62/62 61/61/61 64/64/64
f 65/65/65 66/66/66 67/67/67
f 66/66/66 65/65/65 68/68/68
f 69/69/69 70/70/70 71/71/71
f 70/70/70 69/69/69 72/72/72
f 73/73/73 74/74/74 75/75/75
f 74/74/74 73/73/73 76/76/76

v 0.7413 0.15 1.5
v -0.622352 0.15 1.12814
v -0.741302 0.15 1.5
v -0.37864 0.15 0.22508
v 0.7413 0.15 -1.5
v -0.595131 0.15 -0.88719
v -0.741302 0.15 -1.5
v -0.741302 0.15 -0.42432
v -0.741302 0.15 0.798969
v 0.7413 0.15 0.798969
v 0.86025 0.15 1.12814
v 1.10396 0.15 0.22508
v 0.7413 0.15 -0.42432
v 0.88747 0.15 -0.88719
vt 88.2402 0
vt 34.5531 14.6403
vt 29.87 0
vt 44.1479 50.1936
vt 88.2402 118.11
vt 35.6247 93.9839
vt 29.87 118.11
vt 29.87 75.7604
vt 29.87 27.5996
vt 88.2402 27.5996
vt 92.9233 14.6403
vt 102.518 50.1936
vt 88.2402 75.7604
vt 93.995 93.9839
vn 0 1 0
vn 0 1 0
vn 0 1 0
vn 0 1 0
vn 0 1 0
vn 0 1 0
vn 0 1 0
vn 0 1 0
vn 0 1 0
vn 0 1 0
vn 0 1 0
vn 0 1 0
vn 0 1 0
vn 0 1 0
usemtl Water
f 77/77/77 78/78/78 79/79/79
f 78/78/78 77/77/77 80/80/80
f 81/81/81 80/80/80 77/77/77
f 81/81/81 82/82/82 80/80/80
f 82/82/82 81/81/81 83/83/83
f 80/80/80 82/82/82 84/84/84
f 80/80/80 85/85/85 78/78/78
f 81/81/81 77/77/77 86/86/86
f 87/87/87 86/86/86 77/77/77
f 88/88/88 89/89/89 86/86/86
f 81/81/81 86/86/86 89/89/89
f 81/81/81 89/89/89 90/90/90

v -1.5 0.3 -1.5
v -0.741302 0.3 1.5
v -0.741302 0.3 -1.5
v -1.5 0.3 1.5
v -0.741302 0.3 -0.42432
v -0.595131 0.3 -0.88719
v -0.741302 0.3 0.798969
v -0.622352 0.3 1.12814
v -0.37864 0.3 0.22508
v 1.5 0.3 1.5
v 0.86025 0.3 1.12814
v 0.7413 0.3 1.5
v 1.10396 0.3 0.22508
v 1.5 0.3 -1.5
v 0.88747 0.3 -0.88719
v 0.7413 0.3 -1.5
v 0.7413 0.3 0.798969
v 0.7413 0.3 -0.42432
vt 0 118.11
vt 29.87 0
vt 29.87 118.11
vt 0 0
vt 29.87 75.7604
vt 35.6247 93.9839
vt 29.87 27.5996
vt 34.5531 14.6403
vt 44.1479 50.1936
vt 118.11 0
vt 92.9233 14.6403
vt 88.2402 0
vt 102.518 50.1936
vt 118.11 118.11
vt 93.995 93.9839
vt 88.2402 118.11
vt 88.2402 27.5996
vt 88.2402 75.7604
vn 0 1 0
vn 0 1 0
vn 0 1 0
vn 0 1 0
vn 0 1 0
vn 0 1 0
vn 0 1 0
vn 0 1 0
vn 0 1 0
vn 0 1 0
vn 0 1 0
vn 0 1 0
vn 0 1 0
vn 0 1 0
vn 0 1 0
vn 0 1 0
vn 0 1 0
vn 0 1 0
usemtl Leafs
f 91/91/91 92/92/92 93/93/93
f 92/92/92 91/91/91 94/94/94
f 93/93/93 95/95/95 96/96/96
f 93/93/93 97/97/97 95/95/95
f 93/93/93 92/92/92 97/97/97
f 98/98/98 97/97/97 92/92/92
f 99/99/99 95/95/95 97/97/97
f 100/100/100 101/101/101 102/102/102
f 101/101/101 100/100/100 103/103/103
f 104/104/104 103/103/103 100/100/100
f 104/104/104 105/105/105 103/103/103
f 105/105/105 104/104/104 106/106/106
f 103/103/103 107/107/107 101/101/101
f 103/103/103 105/105/105 108/108/108

