mtllib terrain.mtl

v 1.5 0.3 1.5
v -1.5 0 1.5
v 1.5 0 1.5
v -1.5 0.3 1.5
v -0.642291 0.15 0.800693
v -1.5 0.3 0.741302
v -0.642291 0.3 0.800693
v -1.5 0.15 0.741302
v -0.965095 0.3 -0.91334
v -1.5 0.15 -0.7413
v -0.965095 0.15 -0.91334
v -1.5 0.3 -0.7413
v -0.965095 0.3 -0.91334
v -0.741302 0.15 -1.5
v -0.741302 0.3 -1.5
v -0.965095 0.15 -0.91334
v -0.642291 0.3 0.800693
v 0.0848401 0.15 0.40484
v -0.642291 0.15 0.800693
v 0.0848401 0.3 0.40484
v 1.5 0.3 -1.5
v 0.7413 0.15 -1.5
v 0.7413 0.3 -1.5
v 1.5 0 -1.5
v -0.741302 0.15 -1.5
v -1.5 0 -1.5
v -1.5 0.3 -1.5
v -1.5 0 -1.5
v -1.5 0.15 -0.7413
v -1.5 0.3 -1.5
v -1.5 0.15 0.741302
v -1.5 0 1.5
v -1.5 0.3 0.741302
v -1.5 0.3 1.5
v 1.5 0 -1.5
v -1.5 0 1.5
v -1.5 0 -1.5
v 1.5 0 1.5
v 1.5 0 -1.5
v 1.5 0.3 1.5
v 1.5 0 1.5
v 1.5 0.3 -1.5
v -1.5 0.3 -0.7413
v -0.741302 0.3 -1.5
v 0.86771 0.15 -0.86591
v 0.7413 0.3 -1.5
v 0.7413 0.15 -1.5
v 0.86771 0.3 -0.86591
v 0.31292 0.15 -0.32832
v 0.86771 0.3 -0.86591
v 0.86771 0.15 -0.86591
v 0.31292 0.3 -0.32832
v 0.0848401 0.15 0.40484
v 0.31292 0.3 -0.32832
v 0.31292 0.15 -0.32832
v 0.0848401 0.3 0.40484
vt 118.11 11.811
vt 0 0
vt 118.11 0
vt 0 11.811
vt -31.7856 5.90551
vt 2.06337 11.811
vt -31.7856 11.811
vt 2.06337 5.90551
vt 49.1392 11.811
vt 27.0175 5.90551
vt 49.1392 5.90551
vt 27.0175 11.811
vt 96.2795 11.811
vt 121 5.90551
vt 121 11.811
vt 96.2795 5.90551
vt -42.822 11.811
vt -75.4165 5.90551
vt -42.822 5.90551
vt -75.4165 11.811
vt -118.11 11.811
vt -88.2402 5.90551
vt -88.2402 11.811
vt -118.11 2.62927e-10
vt -29.87 5.90551
vt 8.43511e-24 2.62927e-10
vt 8.43511e-24 11.811
vt -118.11 -4.40398e-24
vt -88.2402 5.90551
vt -118.11 11.811
vt -29.87 5.90551
vt 0 0
vt -29.87 11.811
vt 0 11.811
vt -118.11 118.11
vt 0 0
vt 0 118.11
vt -118.11 0
vt 118.11 0
vt 0 11.811
vt 0 0
vt 118.11 11.811
vt -88.2402 11.811
vt -29.87 11.811
vt -73.1239 5.90551
vt -98.5792 11.811
vt -98.5792 5.90551
vt -73.1239 11.811
vt -101.349 5.90551
vt -131.763 11.811
vt -131.763 5.90551
vt -101.349 11.811
vt -59.7049 5.90551
vt -89.9341 11.811
vt -89.9341 5.90551
vt -59.7049 11.811
vn 0 0 1
vn 0 0 1
vn 0 0 1
vn 0 0 1
vn 0.0690784 0 -0.997611
vn 0.0690784 0 -0.997611
vn 0.0690784 0 -0.997611
vn 0.0690784 0 -0.997611
vn 0.306181 -2.38385e-17 0.951973
vn 0.306181 -2.38385e-17 0.951973
vn 0.306181 -2.38385e-17 0.951973
vn 0.306181 -2.38385e-17 0.951973
vn 0.934327 1.47812e-17 0.356418
vn 0.934327 1.47812e-17 0.356418
vn 0.934327 1.47812e-17 0.356418
vn 0.934327 1.47812e-17 0.356418
vn -0.478141 0 -0.878283
vn -0.478141 0 -0.878283
vn -0.478141 0 -0.878283
vn -0.478141 0 -0.878283
vn 7.14173e-26 -2.22611e-12 -1
vn 7.14173e-26 -2.22611e-12 -1
vn 7.14173e-26 -2.22611e-12 -1
vn 7.14173e-26 -2.22611e-12 -1
vn 7.14173e-26 -2.22611e-12 -1
vn 7.14173e-26 -2.22611e-12 -1
vn 7.14173e-26 -2.22611e-12 -1
vn -1 -4.51523e-13 8.25806e-14
vn -1 -4.51523e-13 8.25806e-14
vn -1 -4.51523e-13 8.25806e-14
vn -1 -4.51523e-13 8.25806e-14
vn -1 -4.51523e-13 8.25806e-14
vn -1 -4.51523e-13 8.25806e-14
vn -1 -4.51523e-13 8.25806e-14
vn 0 -1 0
vn 0 -1 0
vn 0 -1 0
vn 0 -1 0
vn 1 0 0
vn 1 0 0
vn 1 0 0
vn 1 0 0
vn -1 -4.51523e-13 8.25806e-14
vn 7.14173e-26 -2.22611e-12 -1
vn -0.980702 0 0.195509
vn -0.980702 0 0.195509
vn -0.980702 0 0.195509
vn -0.980702 0 0.195509
vn -0.695888 3.36175e-18 -0.71815
vn -0.695888 3.36175e-18 -0.71815
vn -0.695888 3.36175e-18 -0.71815
vn -0.695888 3.36175e-18 -0.71815
vn -0.954862 2.39274e-17 -0.297051
vn -0.954862 2.39274e-17 -0.297051
vn -0.954862 2.39274e-17 -0.297051
vn -0.954862 2.39274e-17 -0.297051
usemtl Stone
f 1/1/1 2/2/2 3/3/3
f 2/2/2 1/1/1 4/4/4
f 5/5/5 6/6/6 7/7/7
f 6/6/6 5/5/5 8/8/8
f 9/9/9 10/10/10 11/11/11
f 10/10/10 9/9/9 12/12/12
f 13/13/13 14/14/14 15/15/15
f 14/14/14 13/13/13 16/16/16
f 17/17/17 18/18/18 19/19/19
f 18/18/18 17/17/17 20/20/20
f 21/21/21 22/22/22 23/23/23
f 24/24/24 22/22/22 21/21/21
f 22/22/22 24/24/24 25/25/25
f 26/26/26 25/25/25 24/24/24
f 25/25/25 26/26/26 27/27/27
f 28/28/28 29/29/29 30/30/30
f 28/28/28 31/31/31 29/29/29
f 32/32/32 31/31/31 28/28/28
f 32/32/32 33/33/33 31/31/31
f 33/33/33 32/32/32 34/34/34
f 35/35/35 36/36/36 37/37/37
f 36/36/36 35/35/35 38/38/38
f 39/39/39 40/40/40 41/41/41
f 40/40/40 39/39/39 42/42/42
f 30/30/30 29/29/29 43/43/43
f 25/25/25 27/27/27 44/44/44
f 45/45/45 46/46/46 47/47/47
f 46/46/46 45/45/45 48/48/48
f 49/49/49 50/50/50 51/51/51
f 50/50/50 49/49/49 52/52/52
f 53/53/53 54/54/54 55/55/55
f 54/54/54 53/53/53 56/56/56

v -0.642291 0.3 0.800693
v -1.5 0.3 1.5
v 1.5 0.3 1.5
v -1.5 0.3 0.741302
v -0.965095 0.3 -0.91334
v -1.5 0.3 -1.5
v -1.5 0.3 -0.7413
v -0.741302 0.3 -1.5
v 0.0848401 0.3 0.40484
v 0.31292 0.3 -0.32832
v 0.86771 0.3 -0.86591
v 1.5 0.3 -1.5
v 0.7413 0.3 -1.5
vt 33.7681 27.5318
vt -2.46187e-17 1.31217e-16
vt 118.11 1.31217e-16
vt -2.38745e-12 29.87
vt 21.0593 95.0135
vt -7.15361e-16 118.11
vt -2.69445e-11 88.2402
vt 29.87 118.11
vt 62.3953 43.1165
vt 71.3749 71.9812
vt 93.217 93.1462
vt 118.11 118.11
vt 88.2402 118.11
vn 2.08438e-18 1 1.11097e-17
vn 2.08438e-18 1 1.11097e-17
vn 2.08438e-18 1 1.11097e-17
vn 2.08438e-18 1 1.11097e-17
vn 6.05673e-17 1 6.40587e-17
vn 6.05673e-17 1 6.40587e-17
vn 6.05673e-17 1 6.40587e-17
vn 6.05673e-17 1 6.40587e-17
vn 2.08438e-18 1 1.11097e-17
vn 2.08438e-18 1 1.11097e-17
vn 2.08438e-18 1 1.11097e-17
vn 2.08438e-18 1 1.11097e-17
vn 2.08438e-18 1 1.11097e-17
usemtl Leafs
f 57/57/57 58/58/58 59/59/59
f 58/58/58 57/57/57 60/60/60
f 61/61/61 62/62/62 63/63/63
f 62/62/62 61/61/61 64/64/64
f 57/57/57 59/59/59 65/65/65
f 65/65/65 59/59/59 66/66/66
f 66/66/66 59/59/59 67/67/67
f 68/68/68 67/67/67 59/59/59
f 67/67/67 68/68/68 69/69/69

v -0.965095 0.15 -0.91334
v -1.5 0.15 0.741302
v -0.642291 0.15 0.800693
v -1.5 0.15 -0.7413
v -0.741302 0.15 -1.5
v 0.7413 0.15 -1.5
v 0.31292 0.15 -0.32832
v 0.0848401 0.15 0.40484
v 0.86771 0.15 -0.86591
vt 21.0593 95.0135
vt -2.38717e-12 29.87
vt 33.7681 27.5318
vt -2.69435e-11 88.2402
vt 29.87 118.11
vt 88.2402 118.11
vt 71.3749 71.9812
vt 62.3953 43.1165
vt 93.217 93.1462
vn -4.33878e-17 1 -2.40918e-17
vn -4.33878e-17 1 -2.40918e-17
vn -4.33878e-17 1 -2.40918e-17
vn -4.33878e-17 1 -2.40918e-17
vn -4.33878e-17 1 -2.40918e-17
vn -4.33878e-17 1 -2.40918e-17
vn -4.33878e-17 1 -2.40918e-17
vn -4.33878e-17 1 -2.40918e-17
vn -4.33878e-17 1 -2.40918e-17
usemtl Water
f 70/70/70 71/71/71 72/72/72
f 71/71/71 70/70/70 73/73/73
f 70/70/70 72/72/72 74/74/74
f 74/74/74 72/72/72 75/75/75
f 75/75/75 72/72/72 76/76/76
f 76/76/76 72/72/72 77/77/77
f 75/75/75 76/76/76 78/78/78

