mtllib terrain.mtl

v 1.5 0.300000 0.58
v 1.5 0.000000 1.5
v 1.5 0.000000 0.72
v 1.5 0.300000 1.5
v 1.5 0.300000 0.784709
v 1.5 0.300000 0.784709
v 1.5 0.300000 0.58
v 0.88719 0.300000 0.726171
v 1.5 0.300000 0.58
v 0.88719 0.000000 0.866171
v 0.88719 0.300000 0.726171
v 1.5 0.000000 0.72
v 1.5 0.000000 1.5
v 0.88719 0.000000 0.866171
v 1.5 0.000000 0.72
v -0.22508 0.000000 0.942659
v -1.5 0.000000 1.5
v -1.12814 -0.000000 0.83895
v -1.5 0.000000 0.72
v -1.5 0.300000 1.5
v -1.5 0.000000 0.72
v -1.5 0.000000 1.5
v -1.5 0.300000 0.58
v -1.5 0.300000 0.789062
v -0.741302 0.300000 1.5
v -1.5 0.300000 1.5
v -0.741302 0.144828 1.5
v -1.5 0.000000 1.5
v 1.5 0.000000 1.5
v 0.7413 0.144828 1.5
v 0.7413 0.300000 1.5
v 1.5 0.300000 1.5
v 0.7413 0.300000 0.888916
v 0.87978 0.300000 0.932647
v 0.7413 0.300000 0.680101
v 0.88719 0.000000 0.866171
v 0.7413 0.300000 0.680101
v 0.88719 0.300000 0.726171
v 0.7413 0.144828 0.752514
v 0.7413 0.000000 0.820101
v 0.7413 0.000000 0.820101
v 0.7413 0.000000 0.680101
v 0.42432 0.000000 0.58
v -0.741302 0.000000 0.756442
v -0.741302 0.000000 0.616442
v -0.798969 0.000000 0.72
v -1.12814 0.300000 0.69895
v -0.798969 0.000000 0.72
v -1.12814 -0.000000 0.83895
v -0.798969 0.300000 0.58
v -1.12814 0.300000 0.69895
v -0.741302 0.300000 0.616442
v -0.798969 0.300000 0.58
v -0.822954 0.300000 0.800393
v -1.5 0.300000 0.789062
v -1.5 0.300000 0.58
v -1.12814 0.300000 0.69895
v -1.5 0.000000 0.72
v -1.5 0.300000 0.58
v -1.12814 -0.000000 0.83895
v -1.12423 0.300000 0.909263
v -0.741302 0.300000 1.5
v -0.741302 0.300000 0.616442
v -0.741302 0.300000 0.851992
v -0.741302 0.144828 1.5
v -0.741302 0.144828 0.756442
v -0.741302 0.144828 0.688856
v -0.741302 0.144828 0.688856
v -0.741302 0.000000 0.756442
v -0.741302 0.144828 0.756442
v -0.741302 0.000000 0.756442
v -0.741302 0.300000 0.616442
v -0.741302 0.144828 0.688856
v -0.798969 0.000000 0.72
v -0.798969 0.300000 0.58
v -0.741302 0.300000 0.851992
v 0.7413 0.144828 1.5
v 0.7413 0.300000 0.680101
v 0.7413 0.144828 0.752514
v 0.7413 0.300000 1.5
v 0.7413 0.300000 0.888916
vt 16.5354 11.4173
vt -19.685 -1.78658e-13
vt 11.0236 -1.78658e-13
vt -19.685 11.4173
vt 8.47601 11.4173
vt -8.47601 118.11
vt -16.5354 118.11
vt -10.7807 93.9839
vt -118.724 5.52327
vt -92.6417 -7.09021
vt -93.9206 5.52327
vt -117.445 -7.09021
vt -19.685 118.11
vt 5.26887 93.9839
vt 11.0236 118.11
vt 2.25752 50.1936
vt -19.685 -1.41259e-32
vt 6.34055 14.6403
vt 11.0236 7.91049e-33
vt 19.685 11.4173
vt -11.0236 -8.72462e-30
vt 19.685 1.55797e-29
vt -16.5354 11.4173
vt -8.30463 11.4173
vt 29.87 11.4173
vt -2.13163e-15 11.4173
vt 29.87 5.51181
vt -2.13163e-15 -2.50305e-15
vt 118.11 -2.50305e-15
vt 88.2402 5.51181
vt 88.2402 11.4173
vt 118.11 11.4173
vt -4.37337 88.2402
vt -2.65169 93.6923
vt -12.5945 88.2402
vt -88.0349 13.9357
vt -80.3518 26.5048
vt -86.3751 26.5048
vt -81.2103 20.0035
vt -82.0116 13.9357
vt 7.08266 88.2402
vt 12.5945 88.2402
vt 16.5354 75.7604
vt 9.58891 29.87
vt 15.1007 29.87
vt 11.0236 27.5996
vt -17.797 12.9472
vt -29.7033 0.408251
vt -15.9238 0.408251
vt -31.5765 12.9472
vt -11.8524 14.6403
vt -15.1007 29.87
vt -16.5354 27.5996
vt -7.85853 26.6553
vt -8.30463 -2.22615e-14
vt -16.5354 -2.49635e-13
vt -10.3333 16.9527
vt 3.35854 4.3863
vt 5.03782 16.9527
vt -12.0125 4.3863
vt -3.57232 14.7942
vt -19.685 11.4173
vt 15.1007 11.4173
vt 5.82708 11.4173
vt -19.685 5.51181
vt 9.58891 5.51181
vt 12.2498 5.51181
vt -12.2498 5.51181
vt -9.58891 0
vt -9.58891 5.51181
vt -20.1282 9.09208
vt -17.1838 21.4236
vt -18.7068 15.0452
vt -17.4425 9.09208
vt -14.4981 21.4236
vt -5.82708 29.87
vt 19.685 5.51181
vt -12.5945 11.4173
vt -9.74353 5.51181
vt 19.685 11.4173
vt -4.37337 11.4173
vn 1 1.51264e-15 -1.19249e-08
vn 1 1.51264e-15 -1.19249e-08
vn 1 1.51264e-15 -1.19249e-08
vn 1 1.51264e-15 -1.19249e-08
vn 1 1.51264e-15 -1.19249e-08
vn -2.49306e-15 1 -2.67551e-15
vn -2.49306e-15 1 -2.67551e-15
vn -2.49306e-15 1 -2.67551e-15
vn -0.210014 -0.425053 -0.880468
vn -0.210014 -0.425053 -0.880468
vn -0.210014 -0.425053 -0.880468
vn -0.210014 -0.425053 -0.880468
vn 5.44582e-17 -1 1.3177e-17
vn 5.44582e-17 -1 1.3177e-17
vn 5.44582e-17 -1 1.3177e-17
vn 5.44582e-17 -1 1.3177e-17
vn 5.44582e-17 -1 1.3177e-17
vn 5.44582e-17 -1 1.3177e-17
vn 5.44582e-17 -1 1.3177e-17
vn -1 -1.51264e-15 1.19249e-08
vn -1 -1.51264e-15 1.19249e-08
vn -1 -1.51264e-15 1.19249e-08
vn -1 -1.51264e-15 1.19249e-08
vn -1 -1.51264e-15 1.19249e-08
vn 1.19249e-08 1.27155e-16 1
vn 1.19249e-08 1.27155e-16 1
vn 1.19249e-08 1.27155e-16 1
vn 1.19249e-08 1.27155e-16 1
vn 1.19249e-08 1.27155e-16 1
vn 1.19249e-08 1.27155e-16 1
vn 1.19249e-08 1.27155e-16 1
vn 1.19249e-08 1.27155e-16 1
vn -2.49306e-15 1 -2.67551e-15
vn -2.49306e-15 1 -2.67551e-15
vn -2.49306e-15 1 -2.67551e-15
vn 0.273537 -0.418168 -0.866206
vn 0.273537 -0.418168 -0.866206
vn 0.273537 -0.418168 -0.866206
vn 0.273537 -0.418168 -0.866206
vn 0.273537 -0.418168 -0.866206
vn 5.44582e-17 -1 1.3177e-17
vn 5.44582e-17 -1 1.3177e-17
vn 5.44582e-17 -1 1.3177e-17
vn 5.44582e-17 -1 1.3177e-17
vn 5.44582e-17 -1 1.3177e-17
vn 5.44582e-17 -1 1.3177e-17
vn -0.309456 -0.413409 -0.856347
vn -0.309456 -0.413409 -0.856347
vn -0.309456 -0.413409 -0.856347
vn -0.309456 -0.413409 -0.856347
vn 1.9498e-15 1 -4.95129e-16
vn 1.9498e-15 1 -4.95129e-16
vn 1.9498e-15 1 -4.95129e-16
vn 1.9498e-15 1 -4.95129e-16
vn 1.9498e-15 1 -4.95129e-16
vn 1.9498e-15 1 -4.95129e-16
vn 0.276808 -0.417761 -0.865363
vn 0.276808 -0.417761 -0.865363
vn 0.276808 -0.417761 -0.865363
vn 0.276808 -0.417761 -0.865363
vn 1.9498e-15 1 -4.95129e-16
vn 1 -1.55627e-13 -1.19248e-08
vn 1 -1.55627e-13 -1.19248e-08
vn 1 -1.55627e-13 -1.19248e-08
vn 1 -1.55627e-13 -1.19248e-08
vn 1 -1.55627e-13 -1.19248e-08
vn 1 -1.55627e-13 -1.19248e-08
vn -1 0 1.19239e-08
vn -1 0 1.19239e-08
vn -1 0 1.19239e-08
vn 0.494606 -0.377848 -0.782685
vn 0.494606 -0.377848 -0.782685
vn 0.494606 -0.377848 -0.782685
vn 0.494606 -0.377848 -0.782685
vn 0.494606 -0.377848 -0.782685
vn 1.9498e-15 1 -4.95129e-16
vn -1 -1.21157e-13 1.19247e-08
vn -1 -1.21157e-13 1.19247e-08
vn -1 -1.21157e-13 1.19247e-08
vn -1 -1.21157e-13 1.19247e-08
vn -1 -1.21157e-13 1.19247e-08
usemtl Stone
f 1/1/1 2/2/2 3/3/3
f 2/2/2 1/1/1 4/4/4
f 4/4/4 1/1/1 5/5/5
f 6/6/6 7/7/7 8/8/8
f 9/9/9 10/10/10 11/11/11
f 10/10/10 9/9/9 12/12/12
f 13/13/13 14/14/14 15/15/15
f 14/14/14 13/13/13 16/16/16
f 17/17/17 16/16/16 13/13/13
f 17/17/17 18/18/18 16/16/16
f 18/18/18 17/17/17 19/19/19
f 20/20/20 21/21/21 22/22/22
f 21/21/21 20/20/20 23/23/23
f 23/23/23 20/20/20 24/24/24
f 25/25/25 26/26/26 27/27/27
f 28/28/28 27/27/27 26/26/26
f 27/27/27 28/28/28 29/29/29
f 27/27/27 29/29/29 30/30/30
f 30/30/30 29/29/29 31/31/31
f 31/31/31 29/29/29 32/32/32
f 6/6/6 33/33/33 34/34/34
f 8/8/8 33/33/33 6/6/6
f 33/33/33 8/8/8 35/35/35
f 36/36/36 37/37/37 38/38/38
f 36/36/36 39/39/39 37/37/37
f 39/39/39 36/36/36 40/40/40
f 16/16/16 41/41/41 14/14/14
f 16/16/16 42/42/42 41/41/41
f 42/42/42 16/16/16 43/43/43
f 16/16/16 44/44/44 45/45/45
f 44/44/44 16/16/16 18/18/18
f 18/18/18 46/46/46 44/44/44
f 47/47/47 48/48/48 49/49/49
f 48/48/48 47/47/47 50/50/50
f 51/51/51 52/52/52 53/53/53
f 52/52/52 51/51/51 54/54/54
f 54/54/54 51/51/51 55/55/55
f 55/55/55 51/51/51 56/56/56
f 57/57/57 58/58/58 59/59/59
f 58/58/58 57/57/57 60/60/60
f 61/61/61 54/54/54 55/55/55
f 62/62/62 63/63/63 64/64/64
f 65/65/65 63/63/63 62/62/62
f 66/66/66 63/63/63 65/65/65
f 63/63/63 66/66/66 67/67/67
f 68/68/68 69/69/69 70/70/70
f 71/71/71 72/72/72 73/73/73
f 74/74/74 72/72/72 71/71/71
f 72/72/72 74/74/74 75/75/75
f 52/52/52 54/54/54 76/76/76
f 77/77/77 78/78/78 79/79/79
f 78/78/78 77/77/77 80/80/80
f 78/78/78 80/80/80 81/81/81

v -1.5 0.300000 1.5
v -1.12423 0.300000 0.909263
v -1.5 0.300000 0.789062
v -0.741302 0.300000 1.5
v 1.5 0.300000 1.5
v 0.87978 0.300000 0.932647
v 0.7413 0.300000 1.5
v 1.5 0.300000 0.784709
v -0.741302 0.300000 0.851992
v -0.822954 0.300000 0.800393
v 0.7413 0.300000 0.888916
vt 19.685 -1.74092e-14
vt -3.57232 14.7942
vt -8.30463 -1.74092e-14
vt 19.685 29.87
vt 19.685 118.11
vt -2.65169 93.6923
vt 19.685 88.2402
vt -8.47601 118.11
vt -5.82708 29.87
vt -7.85853 26.6553
vt -4.37337 88.2402
vn 1.5248e-15 1 7.06008e-16
vn 1.5248e-15 1 7.06008e-16
vn 1.5248e-15 1 7.06008e-16
vn 1.5248e-15 1 7.06008e-16
vn -1.54167e-15 1 4.50223e-16
vn -1.54167e-15 1 4.50223e-16
vn -1.54167e-15 1 4.50223e-16
vn -1.54167e-15 1 4.50223e-16
vn 1.5248e-15 1 7.06008e-16
vn 1.5248e-15 1 7.06008e-16
vn -1.54167e-15 1 4.50223e-16
usemtl Leafs
f 82/82/82 83/83/83 84/84/84
f 83/83/83 82/82/82 85/85/85
f 86/86/86 87/87/87 88/88/88
f 87/87/87 86/86/86 89/89/89
f 83/83/83 90/90/90 91/91/91
f 90/90/90 83/83/83 85/85/85
f 88/88/88 87/87/87 92/92/92

v -0.22508 0.15 0.942659
v 0.42432 0.000000 0.58
v -0.22508 0.000000 0.942659
v 0.42432 0.15 0.58
v -0.22508 0.15 0.942659
v 0.7413 0.15 0.680101
v 0.42432 0.15 0.58
v 0.7413 0.15 0.752514
v 0.7413 0.15 1.5
v -0.741302 0.15 1.5
v -0.741302 0.15 0.756442
v -0.741302 0.15 0.688856
v -0.741302 0.15 0.616442
v -0.22508 0.15 0.942659
v -0.741302 0.000000 0.616442
v -0.741302 0.15 0.616442
v -0.22508 0.000000 0.942659
v -0.741302 0.15 0.688856
v -0.741302 0.000000 0.616442
v -0.741302 0.000000 0.756442
v -0.741302 0.15 0.616442
v 0.7413 0.000000 0.820101
v 0.7413 0.15 0.680101
v 0.7413 0.15 0.752514
v 0.7413 0.000000 0.680101
v 0.42432 0.000000 0.58
v 0.7413 0.15 0.680101
v 0.7413 0.000000 0.680101
v 0.42432 0.15 0.58
vt -44.9238 5.51181
vt -74.2072 -6.50493e-11
vt -44.9238 -6.50493e-11
vt -74.2072 5.51181
vt -2.25752 50.1936
vt -12.5945 88.2402
vt -16.5354 75.7604
vt -9.74353 88.2402
vt 19.685 88.2402
vt 19.685 29.87
vt -9.58891 29.87
vt -12.2498 29.87
vt -15.1007 29.87
vt -41.2254 5.51181
vt -17.1838 6.1231e-11
vt -17.1838 5.51181
vt -41.2254 6.1231e-11
vt -12.2498 5.51181
vt -15.1007 2.543e-13
vt -9.58891 2.543e-13
vt -15.1007 5.51181
vt 7.08266 1.29964e-11
vt 12.5945 5.51181
vt 9.74353 5.51181
vt 12.5945 1.29964e-11
vt -67.2646 7.33122e-11
vt -80.3518 5.51181
vt -80.3518 7.33122e-11
vt -67.2646 5.51181
vn -0.487576 -2.89079e-12 -0.87308
vn -0.487576 -2.89079e-12 -0.87308
vn -0.487576 -2.89079e-12 -0.87308
vn -0.487576 -2.89079e-12 -0.87308
vn -1.33414e-16 1 -3.86705e-16
vn -1.33414e-16 1 -3.86705e-16
vn -1.33414e-16 1 -3.86705e-16
vn -1.33414e-16 1 -3.86705e-16
vn -1.33414e-16 1 -3.86705e-16
vn -1.33414e-16 1 -3.86705e-16
vn -1.33414e-16 1 -3.86705e-16
vn -1.33414e-16 1 -3.86705e-16
vn -1.33414e-16 1 -3.86705e-16
vn 0.534208 -2.13183e-12 -0.845353
vn 0.534208 -2.13183e-12 -0.845353
vn 0.534208 -2.13183e-12 -0.845353
vn 0.534208 -2.13183e-12 -0.845353
vn -1 8.51356e-15 1.1924e-08
vn -1 8.51356e-15 1.1924e-08
vn -1 8.51356e-15 1.1924e-08
vn -1 8.51356e-15 1.1924e-08
vn 1 -1.47285e-13 -1.19238e-08
vn 1 -1.47285e-13 -1.19238e-08
vn 1 -1.47285e-13 -1.19238e-08
vn 1 -1.47285e-13 -1.19238e-08
vn 0.30113 -1.90018e-12 -0.953583
vn 0.30113 -1.90018e-12 -0.953583
vn 0.30113 -1.90018e-12 -0.953583
vn 0.30113 -1.90018e-12 -0.953583
usemtl Water
f 93/93/93 94/94/94 95/95/95
f 94/94/94 93/93/93 96/96/96
f 97/97/97 98/98/98 99/99/99
f 98/98/98 97/97/97 100/100/100
f 100/100/100 97/97/97 101/101/101
f 101/101/101 97/97/97 102/102/102
f 97/97/97 103/103/103 102/102/102
f 97/97/97 104/104/104 103/103/103
f 104/104/104 97/97/97 105/105/105
f 106/106/106 107/107/107 108/108/108
f 107/107/107 106/106/106 109/109/109
f 110/110/110 111/111/111 112/112/112
f 111/111/111 110/110/110 113/113/113
f 114/114/114 115/115/115 116/116/116
f 115/115/115 114/114/114 117/117/117
f 118/118/118 119/119/119 120/120/120
f 119/119/119 118/118/118 121/121/121

